<svg width="119" height="52" viewBox="0 0 119 52" fill="none" xmlns="http://www.w3.org/2000/svg">
<path d="M22.3719 33.7013H11.4728V51.6276H0V0H22.3719C25.527 1.14728 27.9649 3.15501 27.9649 8.60459V25.0967C27.9649 30.5463 25.527 32.554 22.3719 33.7013ZM15.7751 9.32164H11.4728V24.3797H15.7751L16.4921 23.6626V10.0387L15.7751 9.32164Z" fill="#928E6B"/>
<path d="M42.6756 14.5561L41.2415 30.8331H44.8268L43.3927 14.5561H42.6756ZM46.6194 51.6276L45.759 41.5889H40.3094L39.4489 51.6276H28.6932V42.9513L35.2183 0H50.85L57.3752 42.9513V51.6276H46.6194Z" fill="#928E6B"/>
<path d="M72.9844 30.8331H71.6937V51.6276H60.2209V0H71.6937V20.0774H73.1278L79.0793 0H89.5483V7.74413L83.1665 25.6704L89.5483 43.8834V51.6276H79.0793L72.9844 30.8331Z" fill="#928E6B"/>
<path d="M118.333 10.7557H110.087V51.6276H98.6139V10.7557H90.3678V0H118.333V10.7557Z" fill="#928E6B"/>
</svg>
